{
  "accessors": [
    {
      "bufferView": 2,
      "componentType": 5126,
      "count": 4,
      "max": [
        50.00345993041992,
        50.00345993041992,
        0.0
      ],
      "min": [
        -50.00345993041992,
        -50.00345993041992,
        0.0
      ],
      "type": "VEC3"
    },
    {
      "bufferView": 2,
      "byteOffset": 48,
      "componentType": 5126,
      "count": 4,
      "max": [
        0.0,
        -0.0,
        1.0
      ],
      "min": [
        0.0,
        -0.0,
        1.0
      ],
      "type": "VEC3"
    },
    {
      "bufferView": 1,
      "componentType": 5126,
      "count": 4,
      "max": [
        1.0,
        1.0
      ],
      "min": [
        0.0,
        0.0
      ],
      "type": "VEC2"
    },
    {
      "bufferView": 0,
      "componentType": 5125,
      "count": 6,
      "type": "SCALAR"
    },
    {
      "bufferView": 2,
      "byteOffset": 96,
      "componentType": 5126,
      "count": 24,
      "max": [
        -2.295975923538208,
        -6.323596000671387,
        9.047115325927734
      ],
      "min": [
        -6.631462097167969,
        -10.659029960632324,
        -0.040709689259529114
      ],
      "type": "VEC3"
    },
    {
      "bufferView": 2,
      "byteOffset": 384,
      "componentType": 5126,
      "count": 24,
      "max": [
        1.0,
        1.0,
        1.0
      ],
      "min": [
        -1.0,
        -1.0,
        -1.0
      ],
      "type": "VEC3"
    },
    {
      "bufferView": 1,
      "byteOffset": 32,
      "componentType": 5126,
      "count": 24,
      "max": [
        1.0,
        1.0
      ],
      "min": [
        0.0,
        0.0
      ],
      "type": "VEC2"
    },
    {
      "bufferView": 0,
      "byteOffset": 24,
      "componentType": 5125,
      "count": 36,
      "type": "SCALAR"
    },
    {
      "bufferView": 2,
      "byteOffset": 672,
      "componentType": 5126,
      "count": 185,
      "max": [
        49.84169006347656,
        49.84206008911133,
        0.17045660316944122
      ],
      "min": [
        -49.84259033203125,
        -49.847721099853516,
        -0.08247888088226318
      ],
      "type": "VEC3"
    },
    {
      "bufferView": 2,
      "byteOffset": 2892,
      "componentType": 5126,
      "count": 185,
      "max": [
        0.999987781047821,
        0.9999980926513672,
        1.0
      ],
      "min": [
        -0.999988317489624,
        -0.9999980926513672,
        -0.03364095464348793
      ],
      "type": "VEC3"
    },
    {
      "bufferView": 1,
      "byteOffset": 224,
      "componentType": 5126,
      "count": 185,
      "max": [
        1.0,
        1.0
      ],
      "min": [
        0.0,
        0.0
      ],
      "type": "VEC2"
    },
    {
      "bufferView": 0,
      "byteOffset": 168,
      "componentType": 5125,
      "count": 336,
      "type": "SCALAR"
    },
    {
      "bufferView": 2,
      "byteOffset": 5112,
      "componentType": 5126,
      "count": 9870,
      "max": [
        49.20671844482422,
        49.605899810791016,
        5.858770847320557
      ],
      "min": [
        -49.44129943847656,
        -47.3650016784668,
        -0.15954209864139557
      ],
      "type": "VEC3"
    },
    {
      "bufferView": 2,
      "byteOffset": 123552,
      "componentType": 5126,
      "count": 9870,
      "max": [
        1.0,
        1.0,
        1.0
      ],
      "min": [
        -1.0,
        -1.0,
        -1.0
      ],
      "type": "VEC3"
    },
    {
      "bufferView": 1,
      "byteOffset": 1704,
      "componentType": 5126,
      "count": 9870,
      "max": [
        1.0,
        1.0
      ],
      "min": [
        0.0,
        0.0
      ],
      "type": "VEC2"
    },
    {
      "bufferView": 0,
      "byteOffset": 1512,
      "componentType": 5125,
      "count": 26712,
      "type": "SCALAR"
    },
    {
      "bufferView": 2,
      "byteOffset": 241992,
      "componentType": 5126,
      "count": 5170,
      "max": [
        47.59749984741211,
        3.960526943206787,
        4.1634721755981445
      ],
      "min": [
        -47.404579162597656,
        -47.7181282043457,
        -0.11336740106344223
      ],
      "type": "VEC3"
    },
    {
      "bufferView": 2,
      "byteOffset": 304032,
      "componentType": 5126,
      "count": 5170,
      "max": [
        1.0,
        1.0,
        1.0
      ],
      "min": [
        -1.0,
        -1.0,
        -1.0
      ],
      "type": "VEC3"
    },
    {
      "bufferView": 1,
      "byteOffset": 80664,
      "componentType": 5126,
      "count": 5170,
      "max": [
        1.0,
        1.0
      ],
      "min": [
        0.0,
        0.0
      ],
      "type": "VEC2"
    },
    {
      "bufferView": 0,
      "byteOffset": 108360,
      "componentType": 5125,
      "count": 13992,
      "type": "SCALAR"
    },
    {
      "bufferView": 2,
      "byteOffset": 366072,
      "componentType": 5126,
      "count": 1512,
      "max": [
        49.08641815185547,
        49.40604019165039,
        45.55295181274414
      ],
      "min": [
        -49.3377799987793,
        -47.547218322753906,
        -0.20497110486030579
      ],
      "type": "VEC3"
    },
    {
      "bufferView": 2,
      "byteOffset": 384216,
      "componentType": 5126,
      "count": 1512,
      "max": [
        1.0,
        1.0,
        1.0
      ],
      "min": [
        -1.0,
        -1.0,
        -1.0
      ],
      "type": "VEC3"
    },
    {
      "bufferView": 1,
      "byteOffset": 122024,
      "componentType": 5126,
      "count": 1512,
      "max": [
        1.0,
        1.0
      ],
      "min": [
        0.0,
        0.0
      ],
      "type": "VEC2"
    },
    {
      "bufferView": 0,
      "byteOffset": 164328,
      "componentType": 5125,
      "count": 2268,
      "type": "SCALAR"
    },
    {
      "bufferView": 2,
      "byteOffset": 402360,
      "componentType": 5126,
      "count": 9716,
      "max": [
        48.7778205871582,
        32.51580047607422,
        3.7672109603881836
      ],
      "min": [
        -38.932498931884766,
        -49.40898895263672,
        -0.17529340088367462
      ],
      "type": "VEC3"
    },
    {
      "bufferView": 2,
      "byteOffset": 518952,
      "componentType": 5126,
      "count": 9716,
      "max": [
        0.9998413920402527,
        0.9998413920402527,
        1.0
      ],
      "min": [
        -0.9998413920402527,
        -0.9998413920402527,
        -1.0
      ],
      "type": "VEC3"
    },
    {
      "bufferView": 1,
      "byteOffset": 134120,
      "componentType": 5126,
      "count": 9716,
      "max": [
        1.0,
        1.0
      ],
      "min": [
        -1.0,
        0.0
      ],
      "type": "VEC2"
    },
    {
      "bufferView": 0,
      "byteOffset": 173400,
      "componentType": 5125,
      "count": 31584,
      "type": "SCALAR"
    },
    {
      "bufferView": 2,
      "byteOffset": 635544,
      "componentType": 5126,
      "count": 3817,
      "max": [
        21.564090728759766,
        11.891329765319824,
        3.767199993133545
      ],
      "min": [
        -48.080039978027344,
        -43.121849060058594,
        -0.17527559399604797
      ],
      "type": "VEC3"
    },
    {
      "bufferView": 2,
      "byteOffset": 681348,
      "componentType": 5126,
      "count": 3817,
      "max": [
        0.9998413920402527,
        0.9998413920402527,
        1.0
      ],
      "min": [
        -0.9998413920402527,
        -0.9998413920402527,
        -1.0
      ],
      "type": "VEC3"
    },
    {
      "bufferView": 1,
      "byteOffset": 211848,
      "componentType": 5126,
      "count": 3817,
      "max": [
        1.0,
        1.0
      ],
      "min": [
        -1.0,
        0.0
      ],
      "type": "VEC2"
    },
    {
      "bufferView": 0,
      "byteOffset": 299736,
      "componentType": 5125,
      "count": 12408,
      "type": "SCALAR"
    },
    {
      "bufferView": 2,
      "byteOffset": 727152,
      "componentType": 5126,
      "count": 9984,
      "max": [
        50.98638153076172,
        51.53480911254883,
        3.107434034347534
      ],
      "min": [
        -50.81623840332031,
        -50.54499053955078,
        0.910700798034668
      ],
      "type": "VEC3"
    },
    {
      "bufferView": 2,
      "byteOffset": 846960,
      "componentType": 5126,
      "count": 9984,
      "max": [
        0.8751857280731201,
        0.9669991135597229,
        0.9887422919273376
      ],
      "min": [
        -0.8751848936080933,
        -0.9669997692108154,
        -0.9887415766716003
      ],
      "type": "VEC3"
    },
    {
      "bufferView": 1,
      "byteOffset": 242384,
      "componentType": 5126,
      "count": 9984,
      "max": [
        0.9852502942085266,
        1.0
      ],
      "min": [
        0.0,
        0.0
      ],
      "type": "VEC2"
    },
    {
      "bufferView": 0,
      "byteOffset": 349368,
      "componentType": 5125,
      "count": 14976,
      "type": "SCALAR"
    },
    {
      "bufferView": 2,
      "byteOffset": 966768,
      "componentType": 5126,
      "count": 9984,
      "max": [
        50.839141845703125,
        51.444461822509766,
        3.7051448822021484
      ],
      "min": [
        -50.711971282958984,
        -51.03556823730469,
        0.9107133746147156
      ],
      "type": "VEC3"
    },
    {
      "bufferView": 2,
      "byteOffset": 1086576,
      "componentType": 5126,
      "count": 9984,
      "max": [
        0.9805687069892883,
        0.9783232808113098,
        0.9887422919273376
      ],
      "min": [
        -0.9805688261985779,
        -0.9783226251602173,
        -0.9887415766716003
      ],
      "type": "VEC3"
    },
    {
      "bufferView": 1,
      "byteOffset": 322256,
      "componentType": 5126,
      "count": 9984,
      "max": [
        0.9852502942085266,
        1.0
      ],
      "min": [
        0.0,
        0.0
      ],
      "type": "VEC2"
    },
    {
      "bufferView": 0,
      "byteOffset": 409272,
      "componentType": 5125,
      "count": 14976,
      "type": "SCALAR"
    },
    {
      "bufferView": 2,
      "byteOffset": 1206384,
      "componentType": 5126,
      "count": 1536,
      "max": [
        37.07530975341797,
        45.49277877807617,
        3.705143928527832
      ],
      "min": [
        -11.121600151062012,
        -21.4443302154541,
        1.0694270133972168
      ],
      "type": "VEC3"
    },
    {
      "bufferView": 2,
      "byteOffset": 1224816,
      "componentType": 5126,
      "count": 1536,
      "max": [
        0.9805687069892883,
        0.9783232808113098,
        0.8795074224472046
      ],
      "min": [
        -0.9805688261985779,
        -0.9783226251602173,
        -0.8795058131217957
      ],
      "type": "VEC3"
    },
    {
      "bufferView": 1,
      "byteOffset": 402128,
      "componentType": 5126,
      "count": 1536,
      "max": [
        0.9852502942085266,
        1.0
      ],
      "min": [
        0.0,
        0.0
      ],
      "type": "VEC2"
    },
    {
      "bufferView": 0,
      "byteOffset": 469176,
      "componentType": 5125,
      "count": 2304,
      "type": "SCALAR"
    },
    {
      "bufferView": 2,
      "byteOffset": 1243248,
      "componentType": 5126,
      "count": 9932,
      "max": [
        49.66041946411133,
        50.583641052246094,
        2.607614040374756
      ],
      "min": [
        -32.24348068237305,
        -49.55635070800781,
        -0.0025761749129742384
      ],
      "type": "VEC3"
    },
    {
      "bufferView": 2,
      "byteOffset": 1362432,
      "componentType": 5126,
      "count": 9932,
      "max": [
        0.9989622235298157,
        0.9989622235298157,
        1.0
      ],
      "min": [
        -0.9989622235298157,
        -0.9989622235298157,
        -1.0
      ],
      "type": "VEC3"
    },
    {
      "bufferView": 1,
      "byteOffset": 414416,
      "componentType": 5126,
      "count": 9932,
      "max": [
        1.0,
        1.0
      ],
      "min": [
        -1.0,
        0.0
      ],
      "type": "VEC2"
    },
    {
      "bufferView": 0,
      "byteOffset": 478392,
      "componentType": 5125,
      "count": 37440,
      "type": "SCALAR"
    },
    {
      "bufferView": 2,
      "byteOffset": 1481616,
      "componentType": 5126,
      "count": 6112,
      "max": [
        10.543580055236816,
        12.671279907226563,
        2.6076059341430664
      ],
      "min": [
        -49.52888870239258,
        -49.471309661865234,
        -0.002575377933681011
      ],
      "type": "VEC3"
    },
    {
      "bufferView": 2,
      "byteOffset": 1554960,
      "componentType": 5126,
      "count": 6112,
      "max": [
        0.9989622235298157,
        0.9989622235298157,
        1.0
      ],
      "min": [
        -0.9989622235298157,
        -0.9989622235298157,
        -1.0
      ],
      "type": "VEC3"
    },
    {
      "bufferView": 1,
      "byteOffset": 493872,
      "componentType": 5126,
      "count": 6112,
      "max": [
        1.0,
        1.0
      ],
      "min": [
        -1.0,
        0.0
      ],
      "type": "VEC2"
    },
    {
      "bufferView": 0,
      "byteOffset": 628152,
      "componentType": 5125,
      "count": 23040,
      "type": "SCALAR"
    },
    {
      "bufferView": 2,
      "byteOffset": 1628304,
      "componentType": 5126,
      "count": 468,
      "max": [
        48.48339080810547,
        31.9748592376709,
        3.700330972671509
      ],
      "min": [
        -47.97597885131836,
        -49.38639831542969,
        3.6743500232696533
      ],
      "type": "VEC3"
    },
    {
      "bufferView": 2,
      "byteOffset": 1633920,
      "componentType": 5126,
      "count": 468,
      "max": [
        0.3494207262992859,
        0.35211530327796936,
        -0.9352055788040161
      ],
      "min": [
        -0.3501310348510742,
        -0.35231253504753113,
        -0.9998100996017456
      ],
      "type": "VEC3"
    },
    {
      "bufferView": 1,
      "byteOffset": 542768,
      "componentType": 5126,
      "count": 468,
      "max": [
        -0.44999998807907104,
        0.9726582169532776
      ],
      "min": [
        -0.550000011920929,
        0.972658097743988
      ],
      "type": "VEC2"
    },
    {
      "bufferView": 0,
      "byteOffset": 720312,
      "componentType": 5125,
      "count": 936,
      "type": "SCALAR"
    }
  ],
  "asset": {
    "extras": {
      "author": "x_blade (https://sketchfab.com/X_BLADE.)",
      "license": "CC-BY-4.0 (http://creativecommons.org/licenses/by/4.0/)",
      "source": "https://sketchfab.com/3d-models/city-prisma-3d-c73688db9841445ba4fa3bf7b701fdf4",
      "title": "City (prisma 3d)"
    },
    "generator": "Sketchfab-16.12.0",
    "version": "2.0"
  },
  "bufferViews": [
    {
      "buffer": 0,
      "byteLength": 724056,
      "name": "floatBufferViews",
      "target": 34963
    },
    {
      "buffer": 0,
      "byteLength": 546512,
      "byteOffset": 724056,
      "byteStride": 8,
      "name": "floatBufferViews",
      "target": 34962
    },
    {
      "buffer": 0,
      "byteLength": 1639536,
      "byteOffset": 1270568,
      "byteStride": 12,
      "name": "floatBufferViews",
      "target": 34962
    }
  ],
  "buffers": [
    {
      "byteLength": 2910104,
      "uri": "scene.bin"
    }
  ],
  "extensionsUsed": [
    "KHR_materials_specular"
  ],
  "images": [
    {
      "uri": "textures/Material_baseColor.png"
    },
    {
      "uri": "textures/Material_metallicRoughness.png"
    },
    {
      "uri": "textures/Material_4_baseColor.png"
    },
    {
      "uri": "textures/Material_4_metallicRoughness.png"
    },
    {
      "uri": "textures/Material_6_baseColor.png"
    }
  ],
  "materials": [
    {
      "doubleSided": true,
      "name": "Material",
      "pbrMetallicRoughness": {
        "baseColorTexture": {
          "index": 0
        },
        "metallicRoughnessTexture": {
          "index": 1
        },
        "roughnessFactor": 0.6
      }
    },
    {
      "doubleSided": true,
      "name": "Material_1",
      "pbrMetallicRoughness": {
        "baseColorFactor": [
          0.11511101492601783,
          0.10959854345891125,
          0.10959854345891125,
          1.0
        ],
        "metallicFactor": 0.0,
        "roughnessFactor": 0.6
      }
    },
    {
      "doubleSided": true,
      "name": "Material_2",
      "pbrMetallicRoughness": {
        "metallicFactor": 0.0,
        "roughnessFactor": 0.6
      }
    },
    {
      "doubleSided": true,
      "name": "Material_3",
      "pbrMetallicRoughness": {
        "baseColorFactor": [
          0.26885295227298617,
          0.24853723045668077,
          0.24853723045668077,
          1.0
        ],
        "metallicFactor": 0.0,
        "roughnessFactor": 0.6
      }
    },
    {
      "doubleSided": true,
      "extensions": {
        "KHR_materials_specular": {
          "specularColorFactor": [
            1.0,
            1.0,
            1.0
          ],
          "specularFactor": 1.0
        }
      },
      "name": "Material_4",
      "pbrMetallicRoughness": {
        "baseColorTexture": {
          "index": 2
        },
        "metallicRoughnessTexture": {
          "index": 3
        },
        "roughnessFactor": 0.6
      }
    },
    {
      "doubleSided": true,
      "name": "Material_5",
      "pbrMetallicRoughness": {
        "baseColorFactor": [
          0.2827039045199368,
          0.17665258178902138,
          0.10399673385433425,
          1.0
        ],
        "metallicFactor": 0.0,
        "roughnessFactor": 0.6
      }
    },
    {
      "doubleSided": true,
      "extensions": {
        "KHR_materials_specular": {
          "specularColorFactor": [
            1.0,
            1.0,
            1.0
          ],
          "specularFactor": 0.19119105886798893
        }
      },
      "name": "Material_6",
      "pbrMetallicRoughness": {
        "baseColorFactor": [
          0.19507992860668716,
          0.19507992860668716,
          0.19507992860668716,
          1.0
        ],
        "baseColorTexture": {
          "index": 4
        },
        "roughnessFactor": 0.4
      }
    },
    {
      "doubleSided": true,
      "name": "Material_7",
      "pbrMetallicRoughness": {
        "baseColorFactor": [
          0.5720790737836547,
          0.5223233246042464,
          0.5223233246042464,
          1.0
        ],
        "metallicFactor": 0.0,
        "roughnessFactor": 0.6
      }
    },
    {
      "doubleSided": true,
      "name": "Material_8",
      "pbrMetallicRoughness": {
        "metallicFactor": 0.0,
        "roughnessFactor": 0.6
      }
    }
  ],
  "meshes": [
    {
      "name": "Object_0",
      "primitives": [
        {
          "attributes": {
            "NORMAL": 1,
            "POSITION": 0,
            "TEXCOORD_0": 2
          },
          "indices": 3,
          "material": 0,
          "mode": 4
        }
      ]
    },
    {
      "name": "Object_1",
      "primitives": [
        {
          "attributes": {
            "NORMAL": 5,
            "POSITION": 4,
            "TEXCOORD_0": 6
          },
          "indices": 7,
          "material": 2,
          "mode": 4
        }
      ]
    },
    {
      "name": "Object_2",
      "primitives": [
        {
          "attributes": {
            "NORMAL": 9,
            "POSITION": 8,
            "TEXCOORD_0": 10
          },
          "indices": 11,
          "material": 1,
          "mode": 4
        }
      ]
    },
    {
      "name": "Object_3",
      "primitives": [
        {
          "attributes": {
            "NORMAL": 13,
            "POSITION": 12,
            "TEXCOORD_0": 14
          },
          "indices": 15,
          "material": 3,
          "mode": 4
        }
      ]
    },
    {
      "name": "Object_4",
      "primitives": [
        {
          "attributes": {
            "NORMAL": 17,
            "POSITION": 16,
            "TEXCOORD_0": 18
          },
          "indices": 19,
          "material": 3,
          "mode": 4
        }
      ]
    },
    {
      "name": "Object_5",
      "primitives": [
        {
          "attributes": {
            "NORMAL": 21,
            "POSITION": 20,
            "TEXCOORD_0": 22
          },
          "indices": 23,
          "material": 4,
          "mode": 4
        }
      ]
    },
    {
      "name": "Object_6",
      "primitives": [
        {
          "attributes": {
            "NORMAL": 25,
            "POSITION": 24,
            "TEXCOORD_0": 26
          },
          "indices": 27,
          "material": 7,
          "mode": 4
        }
      ]
    },
    {
      "name": "Object_7",
      "primitives": [
        {
          "attributes": {
            "NORMAL": 29,
            "POSITION": 28,
            "TEXCOORD_0": 30
          },
          "indices": 31,
          "material": 7,
          "mode": 4
        }
      ]
    },
    {
      "name": "Object_8",
      "primitives": [
        {
          "attributes": {
            "NORMAL": 33,
            "POSITION": 32,
            "TEXCOORD_0": 34
          },
          "indices": 35,
          "material": 6,
          "mode": 4
        }
      ]
    },
    {
      "name": "Object_9",
      "primitives": [
        {
          "attributes": {
            "NORMAL": 37,
            "POSITION": 36,
            "TEXCOORD_0": 38
          },
          "indices": 39,
          "material": 6,
          "mode": 4
        }
      ]
    },
    {
      "name": "Object_10",
      "primitives": [
        {
          "attributes": {
            "NORMAL": 41,
            "POSITION": 40,
            "TEXCOORD_0": 42
          },
          "indices": 43,
          "material": 6,
          "mode": 4
        }
      ]
    },
    {
      "name": "Object_11",
      "primitives": [
        {
          "attributes": {
            "NORMAL": 45,
            "POSITION": 44,
            "TEXCOORD_0": 46
          },
          "indices": 47,
          "material": 5,
          "mode": 4
        }
      ]
    },
    {
      "name": "Object_12",
      "primitives": [
        {
          "attributes": {
            "NORMAL": 49,
            "POSITION": 48,
            "TEXCOORD_0": 50
          },
          "indices": 51,
          "material": 5,
          "mode": 4
        }
      ]
    },
    {
      "name": "Object_13",
      "primitives": [
        {
          "attributes": {
            "NORMAL": 53,
            "POSITION": 52,
            "TEXCOORD_0": 54
          },
          "indices": 55,
          "material": 8,
          "mode": 4
        }
      ]
    }
  ],
  "nodes": [
    {
      "children": [
        1
      ],
      "matrix": [
        1.0,
        0.0,
        0.0,
        0.0,
        0.0,
        2.220446049250313e-16,
        -1.0,
        0.0,
        0.0,
        1.0,
        2.220446049250313e-16,
        0.0,
        0.0,
        0.0,
        0.0,
        1.0
      ],
      "name": "Sketchfab_model"
    },
    {
      "children": [
        2,
        3,
        4,
        5,
        6,
        7,
        8,
        9,
        10,
        11,
        12,
        13,
        14,
        15
      ],
      "name": "City.obj.cleaner.materialmerger.gles"
    },
    {
      "mesh": 0,
      "name": "Object_2"
    },
    {
      "mesh": 1,
      "name": "Object_3"
    },
    {
      "mesh": 2,
      "name": "Object_4"
    },
    {
      "mesh": 3,
      "name": "Object_5"
    },
    {
      "mesh": 4,
      "name": "Object_6"
    },
    {
      "mesh": 5,
      "name": "Object_7"
    },
    {
      "mesh": 6,
      "name": "Object_8"
    },
    {
      "mesh": 7,
      "name": "Object_9"
    },
    {
      "mesh": 8,
      "name": "Object_10"
    },
    {
      "mesh": 9,
      "name": "Object_11"
    },
    {
      "mesh": 10,
      "name": "Object_12"
    },
    {
      "mesh": 11,
      "name": "Object_13"
    },
    {
      "mesh": 12,
      "name": "Object_14"
    },
    {
      "mesh": 13,
      "name": "Object_15"
    }
  ],
  "samplers": [
    {
      "magFilter": 9729,
      "minFilter": 9987,
      "wrapS": 10497,
      "wrapT": 10497
    }
  ],
  "scene": 0,
  "scenes": [
    {
      "name": "Sketchfab_Scene",
      "nodes": [
        0
      ]
    }
  ],
  "textures": [
    {
      "sampler": 0,
      "source": 0
    },
    {
      "sampler": 0,
      "source": 1
    },
    {
      "sampler": 0,
      "source": 2
    },
    {
      "sampler": 0,
      "source": 3
    },
    {
      "sampler": 0,
      "source": 4
    }
  ]
}
